<svg width="1366" height="768" version="1.1" viewBox="0 0 1366 768" xmlns="http://www.w3.org/2000/svg" xmlns:xlink="http://www.w3.org/1999/xlink"><defs><linearGradient id="linearGradient2835" x1="714" x2="714" y1="450.4" y2="842.3" gradientUnits="userSpaceOnUse"><stop stop-color="#ff6201" offset="0"/><stop stop-color="#fed20d" offset="1"/></linearGradient></defs><rect x=".0005941" y=".00158" width="1366" height="768" fill="url(#linearGradient2835)" stroke-width="2125"/><g fill="#fff"><path d="m583.1 471.3 72.8-2.8v-17.2h-10c-23.2-.8-25.2-3.2-25.2-29.2v-140l-75.2 4.4v17.2h20.4c15.2.4 17.2 2.8 17.2 20v49.2c0 22.8-2.4 36.4-8.4 49.2-8.4 18-24.4 28-44 28-12.4 0-22.8-4.4-28-12.4-5.2-7.6-6-11.6-6-33.6v-122l-70 4.4v17.2h15.2c15.2.4 17.2 2.8 17.2 20v86.4c0 20.4 1.6 29.6 7.6 38.8 10.8 16.4 30 25.6 54 25.6 26.4 0 44.8-10.8 62.4-36.4z" style="white-space:pre"/><path d="m742.7 282.1-69.2 4.4v17.2h14.4c15.2.4 17.2 2.8 17.2 20v114.4c-.4 6-.8 8.4-2.4 10.4-2.8 3.6-10.4 5.2-27.6 5.6h-1.6v14.4h101.2v-14.4h-1.6c-26.8-.8-30.4-2.8-30.4-17.2v-59.2c0-19.6 2.8-37.6 7.2-46.8 8.4-18 26.4-30.4 43.6-30.4 10.4 0 22.4 5.6 28.4 14 6 8.8 8.8 20.8 8.8 40v83.6c-.4 6-.8 8.4-2.4 10.4-2.8 3.6-10.8 5.2-28 5.6h-1.6v14.4h101.2v-14.4h-1.6c-26.4-.8-30-2.8-30-17.2v-80.4c0-28.8-1.2-36-8.4-49.6-10-19.2-30-30.8-54-30.8-26 0-45.6 12-63.2 38.4z" style="white-space:pre"/><path d="m975.9 282.1-69.2 4.4v17.2h14.4c15.2.4 17.2 2.8 17.2 20v195.6c-.4 5.6-.8 8-2.4 10-2.8 3.6-10.4 5.2-27.6 5.6h-1.6v14.4h104v-14.4h-4.4c-26.8-.8-30.4-2.8-30.4-17.2v-75.6c13.2 23.2 28 32.4 52.8 32.4 24.4 0 44.4-10.4 58.8-30 14-19.2 22-44 22-70s-8-50.4-22.8-69.6-33.2-28.8-55.6-28.8c-24.8 0-41.2 10.4-55.2 34.4zm48 15.6c27.6 0 43.6 27.6 43.6 74.4 0 51.6-16 80.8-44.8 80.8-28.8 0-47.2-29.6-47.2-75.6 0-50 18-79.6 48.4-79.6z" style="white-space:pre"/><path d="m328.8 306.1c-6.569 6.598-12.16 14.99-16.08 25.56v-49.6l-70.8 4.4v17.2h16.4c15.2.4 17.2 2.8 17.2 20v114.4c-.4 6-.8004 8.4-2.4 10.4-2.8 3.6-10.8 5.2-28 5.6h-1.6v14.4h106.8v-14.4h-7.199c-26.8-.8-30.4-2.801-30.4-17.2v-21.6c.2392-40.18 14.81-63.68 33.16-76.43a39.98 39.98 0 01-5.375-4.41 39.98 39.98 0 01-4.971-6.059 39.98 39.98 0 01-3.695-6.912 39.98 39.98 0 01-2.275-7.502 39.98 39.98 0 01-.7695-7.801 39.98 39.98 0 01.004-.0488z" style="white-space:pre"/></g><circle cx="368.8" cy="306.2" r="39.98" fill="#fed20d"/></svg>
